<?xml version="1.0" encoding="utf-8"?>
<svg viewBox="0 0 436.663 277.507" width="436.663" height="277.507" xmlns="http://www.w3.org/2000/svg" xmlns:bx="https://boxy-svg.com">
  <g fill="#db6414" transform="matrix(0.251289, 0, 0, 0.279571, 11.970855, 188.140796)" style="">
    <path opacity="NaN" d="m118,54c17,5 23,-51 50,-50c27,1 46.03488,25.36047 50,58c3.96512,32.63953 2.16279,52.54651 -4,76c-6.16279,23.45349 -21,41 -29,17c-8,-24 29,-71 -3,-102c-32,-31 -40,60 -61,45c-21,-15 -64,-41 -84,-19c-20,22 3,49 48,73c45,24 87,25 80,54c-7,29 -30.39535,12.32558 -69,-8c-38.60465,-20.32558 -51.80233,-28.38372 -78,-55c-26.19767,-26.61628 -22,-77 9,-98c38,-29 74,4 91,9z" id="svg_3" style="fill: rgba(219, 100, 20, 0.73); paint-order: stroke; stroke-width: 7.53494px; stroke: rgba(255, 255, 255, 0.54);"/>
  </g>
  <path d="M 38.62 30.045 L 39.616 176.168 L 37.624 176.168 L 38.62 30.045 Z" style="fill: rgb(89, 47, 18); paint-order: stroke; stroke-width: 2px; stroke: rgba(255, 255, 255, 0.52);" bx:shape="triangle 37.624 30.045 1.992 146.123 0.5 0 1@917c63ca"/>
  <path d="M 67.702 254.216 L 69.424 401.878 L 65.979 401.878 L 67.702 254.216 Z" style="fill: rgb(89, 47, 18); stroke: rgba(255, 255, 255, 0.52);" transform="matrix(0, 1, -1, 0, 664.441294, 172.118518)" bx:shape="triangle 65.979 254.216 3.445 147.662 0.5 0 1@93e45b5e"/>
  <path d="M 60.47096252441406 267.9610137939453 Q 60.47096252441406 267.1260528564453 61.55641174316406 266.7364044189453 Q 69.29371643066406 263.7305450439453 77.03102111816406 248.3672637939453 Q 83.09840393066406 236.3438262939453 86.54957580566406 223.0401153564453 Q 87.91334533691406 217.7798614501953 87.91334533691406 215.4419708251953 Q 87.91334533691406 214.5791778564453 87.52369689941406 214.5791778564453 Q 83.84986877441406 214.5791778564453 78.22779846191406 220.2012481689453 Q 77.67115783691406 220.7578887939453 76.98927307128906 220.7578887939453 Q 76.30738830566406 220.7578887939453 75.65333557128906 220.4795684814453 Q 74.99928283691406 220.2012481689453 74.47047424316406 219.7559356689453 Q 73.21803283691406 218.7818145751953 73.21803283691406 217.7659454345703 Q 73.21803283691406 216.7500762939453 73.85816955566406 215.8872833251953 Q 74.49830627441406 215.0244903564453 75.58375549316406 214.2173614501953 Q 76.66920471191406 213.4102325439453 78.06080627441406 212.7283477783203 Q 79.45240783691406 212.0464630126953 80.98316955566406 211.5176544189453 Q 84.21168518066406 210.4322052001953 85.95118713378906 210.4322052001953 Q 87.69068908691406 210.4322052001953 88.99879455566406 210.6409454345703 Q 90.30690002441406 210.8496856689453 91.50367736816406 211.3506622314453 Q 94.39820861816406 212.6031036376953 94.39820861816406 214.9409942626953 Q 94.39820861816406 219.1157989501953 91.78199768066406 228.2725372314453 Q 88.99879455566406 237.9580841064453 84.49000549316406 247.2261505126953 Q 77.97731018066406 260.2515411376953 70.74098205566406 265.9571075439453 Q 66.51051330566406 269.2969512939453 62.72535705566406 269.2969512939453 Q 61.30592346191406 269.2969512939453 60.66578674316406 268.5454864501953 Q 60.47096252441406 268.2949981689453 60.47096252441406 267.9610137939453 Z M 94.75579833984375 243.9698028564453 Q 94.86712646484375 241.5484161376953 95.56292724609375 239.3357696533203 Q 96.25872802734375 237.1231231689453 97.42767333984375 235.0496368408203 Q 98.59661865234375 232.9761505126953 100.16912841796875 231.1253204345703 Q 101.74163818359375 229.2744903564453 103.57855224609375 227.8828887939453 Q 107.55853271484375 224.9048614501953 111.62200927734375 224.9048614501953 Q 116.38128662109375 224.9048614501953 117.96771240234375 228.8291778564453 Q 118.52435302734375 230.1651153564453 118.49652099609375 231.9881134033203 Q 118.46868896484375 233.8111114501953 117.80072021484375 235.3557891845703 Q 117.13275146484375 236.9004669189453 115.94989013671875 238.1668243408203 Q 114.76702880859375 239.4331817626953 113.13885498046875 240.4351348876953 Q 111.51068115234375 241.4370880126953 109.59027099609375 242.1328887939453 Q 105.63812255859375 243.5244903564453 101.12933349609375 243.5801544189453 Q 101.01800537109375 243.9698028564453 100.99017333984375 244.7490997314453 Q 100.96234130859375 245.5283966064453 101.15716552734375 246.4886016845703 Q 101.35198974609375 247.4488067626953 101.82513427734375 248.2002716064453 Q 102.82708740234375 249.8701934814453 104.71966552734375 249.8701934814453 Q 107.94818115234375 249.8701934814453 111.00970458984375 247.9776153564453 Q 112.09515380859375 247.3374786376953 112.77703857421875 246.6555938720703 Q 113.45892333984375 245.9737091064453 113.95989990234375 245.9737091064453 Q 114.46087646484375 245.9737091064453 114.83660888671875 246.5720977783203 Q 115.21234130859375 247.1704864501953 115.21234130859375 247.9219512939453 Q 115.21234130859375 249.3970489501953 114.37738037109375 250.4824981689453 Q 110.87054443359375 253.9893341064453 103.94036865234375 253.9893341064453 Q 99.84906005859375 253.9893341064453 97.37200927734375 251.5401153564453 Q 94.58880615234375 248.7569122314453 94.75579833984375 243.9698028564453 Z M 111.00970458984375 228.6065216064453 Q 108.08734130859375 228.6065216064453 105.38763427734375 232.6143341064453 Q 103.10540771484375 236.0655059814453 101.71380615234375 240.7969512939453 Q 106.36175537109375 240.3238067626953 109.78509521484375 237.1231231689453 Q 112.93011474609375 234.1172637939453 112.93011474609375 231.3618927001953 Q 112.93011474609375 228.6065216064453 111.00970458984375 228.6065216064453 Z M 141.58704376220703 230.1651153564453 Q 140.72425079345703 230.1651153564453 139.13782501220703 231.8211212158203 Q 137.55139923095703 233.4771270751953 136.38245391845703 234.8408966064453 L 134.01673126220703 237.6797637939453 L 129.45227813720703 243.4966583251953 Q 127.83802032470703 246.5581817626953 126.91956329345703 248.5899200439453 L 125.41663360595703 251.8184356689453 Q 124.83216094970703 253.0152130126953 124.40076446533203 253.5022735595703 Q 123.96936798095703 253.9893341064453 123.23181915283203 253.9893341064453 Q 122.49427032470703 253.9893341064453 121.81238555908203 253.7249298095703 Q 121.13050079345703 253.4605255126953 120.62952423095703 253.0430450439453 Q 119.57190704345703 252.1524200439453 119.57190704345703 251.0948028564453 Q 119.57190704345703 250.6773223876953 120.18421173095703 249.4527130126953 L 121.24182891845703 247.1983184814453 Q 121.74280548095703 246.1963653564453 122.41077423095703 244.6377716064453 L 123.96936798095703 240.8247833251953 Q 127.25354766845703 232.6143341064453 127.25354766845703 230.2207794189453 Q 127.25354766845703 228.9405059814453 126.41858673095703 228.3282012939453 L 125.86194610595703 227.9385528564453 Q 125.58362579345703 227.7437286376953 125.58362579345703 227.2566680908203 Q 125.58362579345703 226.7696075439453 125.95935821533203 226.3242950439453 Q 126.33509063720703 225.8789825439453 126.94739532470703 225.5449981689453 Q 128.19983673095703 224.9048614501953 129.46619415283203 224.9048614501953 Q 130.73255157470703 224.9048614501953 131.42835235595703 225.1831817626953 Q 132.12415313720703 225.4615020751953 132.59729766845703 225.9346466064453 Q 133.62708282470703 226.9087677001953 133.62708282470703 227.9663848876953 Q 133.62708282470703 229.0240020751953 133.36267852783203 230.0955352783203 Q 133.09827423095703 231.1670684814453 132.69470977783203 232.2664337158203 Q 132.29114532470703 233.3657989501953 131.84583282470703 234.4234161376953 Q 131.40052032470703 235.4810333251953 131.03870391845703 236.2603302001953 L 130.48206329345703 237.4571075439453 Q 130.25940704345703 237.9024200439453 130.37073516845703 237.7354278564453 Q 133.46009063720703 233.4492950439453 134.43421173095703 232.2246856689453 L 136.38245391845703 229.8867950439453 Q 138.52552032470703 227.3819122314453 139.75012969970703 226.5747833251953 Q 142.22718048095703 224.9048614501953 143.64661407470703 224.9048614501953 Q 145.06604766845703 224.9048614501953 146.04016876220703 225.2666778564453 Q 147.01428985595703 225.6284942626953 147.73792266845703 226.2964630126953 Q 149.26868438720703 227.7158966064453 149.26868438720703 229.9146270751953 Q 149.26868438720703 232.1133575439453 148.26673126220703 234.5069122314453 Q 147.26477813720703 236.9004669189453 146.52722930908203 238.3894805908203 Q 145.78968048095703 239.8784942626953 145.12171173095703 241.4092559814453 Q 143.03430938720703 246.0572052001953 143.03430938720703 248.1724395751953 Q 143.03430938720703 249.1187286376953 144.53723907470703 249.1187286376953 Q 145.70618438720703 249.1187286376953 146.66638946533203 248.6177520751953 Q 147.62659454345703 248.1167755126953 147.90491485595703 248.1167755126953 Q 148.48938751220703 248.1167755126953 148.48938751220703 248.7012481689453 Q 148.48938751220703 251.1782989501953 145.95667266845703 252.8482208251953 Q 144.25891876220703 253.9893341064453 142.83948516845703 253.9893341064453 Q 141.42005157470703 253.9893341064453 140.48767852783203 253.6831817626953 Q 139.55530548095703 253.3770294189453 138.83167266845703 252.7090606689453 Q 137.18958282470703 251.2339630126953 137.18958282470703 248.5899200439453 Q 137.18958282470703 245.3614044189453 139.22132110595703 240.5186309814453 Q 140.69641876220703 237.2066192626953 141.30872344970703 235.9820098876953 L 142.25501251220703 234.0059356689453 Q 143.11780548095703 232.2246856689453 143.11780548095703 231.1949005126953 Q 143.11780548095703 230.1651153564453 141.58704376220703 230.1651153564453 Z M 173.56285095214844 230.1651153564453 Q 172.70005798339844 230.1651153564453 171.11363220214844 231.8211212158203 Q 169.52720642089844 233.4771270751953 168.35826110839844 234.8408966064453 L 165.99253845214844 237.6797637939453 L 161.42808532714844 243.4966583251953 Q 159.81382751464844 246.5581817626953 158.89537048339844 248.5899200439453 L 157.39244079589844 251.8184356689453 Q 156.80796813964844 253.0152130126953 156.37657165527344 253.5022735595703 Q 155.94517517089844 253.9893341064453 155.20762634277344 253.9893341064453 Q 154.47007751464844 253.9893341064453 153.78819274902344 253.7249298095703 Q 153.10630798339844 253.4605255126953 152.60533142089844 253.0430450439453 Q 151.54771423339844 252.1524200439453 151.54771423339844 251.0948028564453 Q 151.54771423339844 250.6773223876953 152.16001892089844 249.4527130126953 L 153.21763610839844 247.1983184814453 Q 153.71861267089844 246.1963653564453 154.38658142089844 244.6377716064453 L 155.94517517089844 240.8247833251953 Q 159.22935485839844 232.6143341064453 159.22935485839844 230.2207794189453 Q 159.22935485839844 228.9405059814453 158.39439392089844 228.3282012939453 L 157.83775329589844 227.9385528564453 Q 157.55943298339844 227.7437286376953 157.55943298339844 227.2566680908203 Q 157.55943298339844 226.7696075439453 157.93516540527344 226.3242950439453 Q 158.31089782714844 225.8789825439453 158.92320251464844 225.5449981689453 Q 160.17564392089844 224.9048614501953 161.44200134277344 224.9048614501953 Q 162.70835876464844 224.9048614501953 163.40415954589844 225.1831817626953 Q 164.09996032714844 225.4615020751953 164.57310485839844 225.9346466064453 Q 165.60289001464844 226.9087677001953 165.60289001464844 227.9663848876953 Q 165.60289001464844 229.0240020751953 165.33848571777344 230.0955352783203 Q 165.07408142089844 231.1670684814453 164.67051696777344 232.2664337158203 Q 164.26695251464844 233.3657989501953 163.82164001464844 234.4234161376953 Q 163.37632751464844 235.4810333251953 163.01451110839844 236.2603302001953 L 162.45787048339844 237.4571075439453 Q 162.23521423339844 237.9024200439453 162.34654235839844 237.7354278564453 Q 165.43589782714844 233.4492950439453 166.41001892089844 232.2246856689453 L 168.35826110839844 229.8867950439453 Q 170.50132751464844 227.3819122314453 171.72593688964844 226.5747833251953 Q 174.20298767089844 224.9048614501953 175.62242126464844 224.9048614501953 Q 177.04185485839844 224.9048614501953 178.01597595214844 225.2666778564453 Q 178.99009704589844 225.6284942626953 179.71372985839844 226.2964630126953 Q 181.24449157714844 227.7158966064453 181.24449157714844 229.9146270751953 Q 181.24449157714844 232.1133575439453 180.24253845214844 234.5069122314453 Q 179.24058532714844 236.9004669189453 178.50303649902344 238.3894805908203 Q 177.76548767089844 239.8784942626953 177.09751892089844 241.4092559814453 Q 175.01011657714844 246.0572052001953 175.01011657714844 248.1724395751953 Q 175.01011657714844 249.1187286376953 176.51304626464844 249.1187286376953 Q 177.68199157714844 249.1187286376953 178.64219665527344 248.6177520751953 Q 179.60240173339844 248.1167755126953 179.88072204589844 248.1167755126953 Q 180.46519470214844 248.1167755126953 180.46519470214844 248.7012481689453 Q 180.46519470214844 251.1782989501953 177.93247985839844 252.8482208251953 Q 176.23472595214844 253.9893341064453 174.81529235839844 253.9893341064453 Q 173.39585876464844 253.9893341064453 172.46348571777344 253.6831817626953 Q 171.53111267089844 253.3770294189453 170.80747985839844 252.7090606689453 Q 169.16539001464844 251.2339630126953 169.16539001464844 248.5899200439453 Q 169.16539001464844 245.3614044189453 171.19712829589844 240.5186309814453 Q 172.67222595214844 237.2066192626953 173.28453063964844 235.9820098876953 L 174.23081970214844 234.0059356689453 Q 175.09361267089844 232.2246856689453 175.09361267089844 231.1949005126953 Q 175.09361267089844 230.1651153564453 173.56285095214844 230.1651153564453 Z M 206.7910919189453 246.3076934814453 Q 206.7910919189453 248.8682403564453 208.6001739501953 248.8682403564453 Q 209.8526153564453 248.8682403564453 210.6736602783203 248.4785919189453 Q 211.4947052001953 248.0889434814453 211.7730255126953 248.0889434814453 Q 212.3574981689453 248.0889434814453 212.3574981689453 248.7012481689453 Q 212.3574981689453 251.0948028564453 209.8526153564453 252.8203887939453 Q 207.2085723876953 254.6294708251953 204.4532012939453 253.7110137939453 Q 202.6441192626953 253.0708770751953 201.7813262939453 250.9556427001953 Q 201.3638458251953 249.8701934814453 201.3638458251953 248.9795684814453 Q 201.3638458251953 247.5323028564453 201.6421661376953 245.9180450439453 Q 199.0537872314453 251.2061309814453 195.2129669189453 253.2100372314453 Q 193.6822052001953 253.9893341064453 191.9566192626953 253.9893341064453 Q 190.2310333251953 253.9893341064453 188.9646759033203 253.2796173095703 Q 187.6983184814453 252.5699005126953 186.8076934814453 251.3174591064453 Q 184.9986114501953 248.7012481689453 185.1656036376953 244.7490997314453 Q 185.3325958251953 239.7949981689453 188.0879669189453 235.0357208251953 Q 190.6206817626953 230.5825958251953 194.4893341064453 227.7715606689453 Q 198.3579864501953 224.9048614501953 201.7256622314453 224.9048614501953 Q 205.0933380126953 224.9048614501953 207.1529083251953 227.9942169189453 Q 209.0733184814453 224.9048614501953 210.5484161376953 224.9048614501953 Q 212.1348419189453 224.9048614501953 212.9419708251953 225.4893341064453 Q 214.4727325439453 226.6026153564453 214.0274200439453 227.4375762939453 Q 207.0415802001953 241.7432403564453 206.8467559814453 245.2500762939453 Q 206.7910919189453 245.7510528564453 206.7910919189453 246.3076934814453 Z M 191.3443145751953 246.4190216064453 Q 191.3443145751953 249.7588653564453 193.4873809814453 249.7588653564453 Q 195.1294708251953 249.7588653564453 197.5230255126953 246.9756622314453 Q 201.0298614501953 242.8843536376953 203.7295684814453 235.9541778564453 Q 204.5923614501953 233.7832794189453 205.1768341064453 231.6123809814453 Q 205.0655059814453 229.7198028564453 203.5904083251953 228.8291778564453 Q 203.0894317626953 228.5230255126953 202.1013946533203 228.5230255126953 Q 201.1133575439453 228.5230255126953 199.7913360595703 229.2466583251953 Q 198.4693145751953 229.9702911376953 197.2307891845703 231.2227325439453 Q 195.9922637939453 232.4751739501953 194.9207305908203 234.1868438720703 Q 193.8491973876953 235.8985137939453 193.0420684814453 237.9024200439453 Q 191.3443145751953 242.1885528564453 191.3443145751953 246.4190216064453 Z M 236.4297637939453 230.1651153564453 Q 234.8990020751953 230.1651153564453 230.9468536376953 234.8408966064453 L 228.6367950439453 237.6797637939453 L 224.1836700439453 243.4966583251953 Q 222.5694122314453 246.5581817626953 221.6509552001953 248.5899200439453 L 220.1480255126953 251.8184356689453 Q 219.5635528564453 253.0152130126953 219.1321563720703 253.5022735595703 Q 218.7007598876953 253.9893341064453 217.9632110595703 253.9893341064453 Q 217.2256622314453 253.9893341064453 216.5437774658203 253.7249298095703 Q 215.8618927001953 253.4605255126953 215.3609161376953 253.0430450439453 Q 214.3032989501953 252.1524200439453 214.3032989501953 251.0948028564453 Q 214.3032989501953 250.6773223876953 214.8877716064453 249.4527130126953 L 216.0010528564453 247.1983184814453 Q 221.2056427001953 236.4829864501953 225.4361114501953 220.0342559814453 Q 226.9947052001953 213.9668731689453 227.6905059814453 209.1240997314453 Q 227.9966583251953 206.7862091064453 229.9727325439453 206.7862091064453 Q 231.2530059814453 206.7862091064453 232.0879669189453 207.3985137939453 Q 233.7022247314453 208.5952911376953 233.6465606689453 209.9590606689453 Q 233.5908966064453 211.3228302001953 233.2569122314453 213.0205841064453 Q 232.9229278564453 214.7183380126953 232.3941192626953 216.7083282470703 Q 231.8653106689453 218.6983184814453 231.1973419189453 220.8970489501953 Q 229.3604278564453 226.4912872314453 228.4698028564453 228.9683380126953 Q 225.7422637939453 236.4551544189453 225.1021270751953 237.7354278564453 Q 225.5196075439453 237.2344512939453 226.1875762939453 236.3716583251953 Q 231.2530059814453 229.7198028564453 232.4497833251953 228.4256134033203 Q 233.6465606689453 227.1314239501953 234.4815216064453 226.4356231689453 Q 236.2349395751953 224.9048614501953 238.9346466064453 224.9048614501953 Q 241.1333770751953 224.9048614501953 242.4693145751953 226.3799591064453 Q 243.7217559814453 227.7993927001953 243.7217559814453 229.4832305908203 Q 243.7217559814453 231.1670684814453 243.3460235595703 232.5169219970703 Q 242.9702911376953 233.8667755126953 242.3858184814453 235.2583770751953 Q 241.8013458251953 236.6499786376953 241.1055450439453 238.1250762939453 L 239.7139434814453 241.0474395751953 Q 237.7657012939453 245.4727325439453 237.7657012939453 247.6157989501953 Q 237.7657012939453 249.1187286376953 238.9903106689453 249.1187286376953 Q 240.1592559814453 249.1187286376953 241.1194610595703 248.6177520751953 Q 242.0796661376953 248.1167755126953 242.3579864501953 248.1167755126953 Q 242.9424591064453 248.1167755126953 242.9424591064453 248.7012481689453 Q 242.9424591064453 251.1782989501953 240.4375762939453 252.8482208251953 Q 238.7119903564453 253.9893341064453 237.2925567626953 253.9893341064453 Q 235.8731231689453 253.9893341064453 234.9407501220703 253.6970977783203 Q 234.0083770751953 253.4048614501953 233.2847442626953 252.7368927001953 Q 231.6426544189453 251.2339630126953 231.6426544189453 248.3115997314453 Q 231.6426544189453 245.1665802001953 233.7022247314453 240.4073028564453 L 236.7080841064453 234.0059356689453 Q 237.5708770751953 232.2246856689453 237.5708770751953 231.1949005126953 Q 237.5708770751953 230.1651153564453 236.4297637939453 230.1651153564453 Z" transform="matrix(1, 0, 0, 1, 0, 0)" style="fill: rgb(89, 47, 18); paint-order: stroke; stroke: rgba(255, 255, 255, 0.58); stroke-width: 2px; white-space: pre;"/>
</svg>