<svg width="223" height="225" xmlns="http://www.w3.org/2000/svg">
 <g fill="#db7814">
  <path opacity="NaN" d="m118,54c17,5 23,-51 50,-50c27,1 46.03488,25.36047 50,58c3.96512,32.63953 2.16279,52.54651 -4,76c-6.16279,23.45349 -21,41 -29,17c-8,-24 29,-71 -3,-102c-32,-31 -40,60 -61,45c-21,-15 -64,-41 -84,-19c-20,22 3,49 48,73c45,24 87,25 80,54c-7,29 -30.39535,12.32558 -69,-8c-38.60465,-20.32558 -51.80233,-28.38372 -78,-55c-26.19767,-26.61628 -22,-77 9,-98c38,-29 74,4 91,9z" id="svg_3"/>
 </g>
</svg>